<?xml version="1.0" encoding="UTF-8"?>
<!DOCTYPE svg PUBLIC "-//W3C//DTD SVG 1.1//EN" "http://www.w3.org/Graphics/SVG/1.1/DTD/svg11.dtd">
<!-- Creator: CorelDRAW 2021 (64-Bit) -->
<svg xmlns="http://www.w3.org/2000/svg" xml:space="preserve" width="112.833mm" height="135.591mm" version="1.1" style="shape-rendering:geometricPrecision; text-rendering:geometricPrecision; image-rendering:optimizeQuality; fill-rule:evenodd; clip-rule:evenodd"
viewBox="0 0 11269.04 13541.96"
 xmlns:xlink="http://www.w3.org/1999/xlink"
 xmlns:xodm="http://www.corel.com/coreldraw/odm/2003">
 <defs>
  <style type="text/css">
   <![CDATA[
    .str0 {stroke:#978667;stroke-width:135.3;stroke-linecap:round;stroke-linejoin:round;stroke-miterlimit:22.9256}
    .fil1 {fill:#978667}
    .fil0 {fill:#978667;fill-rule:nonzero}
   ]]>
  </style>
 </defs>
 <g id="Layer_x0020_1">
  <metadata id="CorelCorpID_0Corel-Layer"/>
  <path class="fil0 str0" d="M516.82 13474.3c-117.03,0 -242.62,-30.52 -334.54,-131.88 -69.16,-76.28 -114.63,-188.79 -114.63,-352.6l0 -3950.56c0,-475.09 196.05,-792.18 488.47,-1016.54 261.31,-200.48 596.69,-321.81 934.07,-416.06l0 -1275.98c0,-1720.44 1060.08,-2184.67 2079.65,-2631.16l115.13 -50.7c382.77,-168.6 703.24,-312.78 1005.09,-466.57 300.84,-153.28 581.86,-315.36 885.81,-519.65l58.64 -39.41 58.64 39.41c303.95,204.29 584.97,366.38 885.81,519.65 301.85,153.79 622.32,297.97 1005.09,466.57l115.13 50.7c1019.57,446.5 2079.65,910.73 2079.65,2631.16l0 1275.98c337.38,94.25 672.76,215.59 934.07,416.06 292.42,224.36 488.47,541.45 488.47,1016.54l0 3950.56c0,163.81 -45.46,276.32 -114.63,352.6 -91.91,101.36 -217.51,131.88 -334.54,131.88l-10235.4 0zm-178.45 -273.08c42.98,47.4 111.74,61.67 178.45,61.67l10235.4 0c66.72,0 135.48,-14.27 178.45,-61.67 35.77,-39.45 59.3,-105.67 59.3,-211.4l0 -3950.56c0,-398.38 -162.57,-662.86 -405.06,-848.91 -253.37,-194.39 -597.11,-309.57 -939.03,-401.18l-78.45 -21.02 0 -1437.46c0,-1582.88 -995.24,-2018.74 -1952.47,-2437.93l-115.95 -50.7c-387.15,-170.53 -711.2,-316.32 -1015.84,-471.52 -286.53,-145.99 -557.15,-301.03 -848.65,-493.79 -291.5,192.76 -562.12,347.8 -848.65,493.79 -304.63,155.2 -628.69,300.99 -1015.84,471.52l-115.95 50.7c-957.23,419.19 -1952.47,855.05 -1952.47,2437.93l0 1437.46 -78.45 21.02c-341.93,91.61 -685.66,206.79 -939.03,401.18 -242.48,186.04 -405.06,450.53 -405.06,848.91l0 3950.56c0,105.74 23.52,171.95 59.3,211.4z"/>
  <path class="fil0 str0" d="M4071.07 12923.76c-126.21,0 -238.71,-27.34 -324.29,-101.04 -86.56,-74.58 -138.22,-189.59 -138.22,-361.5l0 -2602.75c0,-472.69 222.25,-645.38 468.14,-836.23l-0.16 -0.2c43.14,-33.5 -22.21,17.98 39.74,-30.52l810.37 -634.2c166.86,-130.58 297.94,-203.74 407.96,-244.64 116.77,-43.43 207.61,-51.14 291.06,-51.14 83.45,0 174.29,7.71 291.06,51.14 110.02,40.9 241.11,114.06 407.96,244.64l810.37 634.2c61.95,48.5 -3.4,-2.98 39.74,30.52l-0.16 0.2c245.89,190.85 468.14,363.54 468.14,836.23l0 2602.75c0,171.91 -51.65,286.93 -138.22,361.5 -85.58,73.71 -198.08,101.04 -324.29,101.04l-3109.21 0zm-186.38 -260.42c41.51,35.75 107.43,49.01 186.38,49.01l3109.21 0c78.95,0 144.88,-13.25 186.38,-49.01 40.52,-34.91 64.71,-98.33 64.71,-202.12l0 -2602.75c0,-370.17 -183.19,-512.36 -385.8,-669.62l-0.33 -0.11 -0.09 0.11c-12.82,-9.95 22.5,17.53 0.23,0l-0.23 0 0.09 -0.11 -850.2 -665.43c-148.01,-115.84 -260.32,-179.26 -351.8,-213.26 -84.7,-31.49 -153.54,-37.09 -217.58,-37.09 -64.04,0 -132.87,5.6 -217.58,37.09 -91.47,34 -203.78,97.42 -351.8,213.26l-850.2 665.43 0.09 0.11 -0.23 0c-22.27,17.52 13.05,-9.95 0.23,0l-0.09 -0.11 -0.33 0.11c-202.61,157.26 -385.8,299.45 -385.8,669.62l0 2602.75c0,103.8 24.19,167.22 64.71,202.12z"/>
  <path class="fil0" d="M7159.5 1781.59c-99.36,258.32 -275.13,478.46 -499.46,632.49 -218.18,149.83 -482.23,237.53 -766.53,237.53 -374.57,0 -713.69,-151.85 -959.16,-397.32 -245.48,-245.47 -397.32,-584.6 -397.32,-959.16 0,-292.6 92.99,-563.84 251.08,-785.8 162.06,-227.56 392.98,-403.01 662.5,-496.13 146.57,-52.65 249.12,61.38 102.81,179.6 -112.29,96.41 -203.54,216.38 -265.92,352.08 -59.95,130.42 -93.39,276.12 -93.39,430.25 0,284.59 115.35,542.25 301.84,728.73 186.47,186.48 444.14,301.84 728.73,301.84 147.78,0 287.9,-30.81 414.24,-86.29 131.33,-57.69 248.55,-142.26 344.69,-246.82 102.66,-124.42 231.77,-39.64 175.89,109zm-618.37 458.25c47.19,-32.4 91.82,-68.23 133.54,-107.12 -139.84,54.48 -291.62,84.39 -449.99,84.39 -342.95,0 -653.45,-139.02 -878.2,-363.78 -224.76,-224.75 -363.78,-535.25 -363.78,-878.2 0,-173.41 35.91,-338.97 100.72,-489.67 -45.07,45.12 -86.43,93.99 -123.54,146.11 -133.13,186.91 -211.43,415.92 -211.43,663.57 0,316.2 128.17,602.49 335.38,809.69 207.2,207.2 493.48,335.38 809.69,335.38 240.54,0 463.58,-73.98 647.62,-200.36z"/>
  <path class="fil1" d="M6397.52 321.16l67.73 148.59 34.88 76.52 137.33 22.99c53.83,9.01 107.67,18.03 161.52,27.04 72.02,9.88 88.19,64.35 29.16,110.48l-126 103.89 -54.74 45.13 13.72 142.71c5.23,54.33 10.46,108.67 15.69,163 9.1,72.13 -39.33,101.84 -99.16,56.77l-132.96 -94.82 -104.39 -74.45 -104.39 74.46 -132.95 94.81c-59.84,45.07 -108.27,15.36 -99.17,-56.77 5.23,-54.33 10.46,-108.67 15.69,-163l13.73 -142.7 -54.75 -45.14 -126 -103.89c-59.03,-46.13 -42.86,-100.6 29.16,-110.48 53.84,-9.01 107.68,-18.03 161.52,-27.04l137.33 -22.99 34.88 -76.52c22.64,-49.67 45.28,-99.34 67.92,-149.01 28.17,-67.02 84.98,-68.53 114.27,0.42zm-57.23 421.53c32.84,0 59.45,26.62 59.45,59.45 0,32.84 -26.62,59.45 -59.45,59.45 -32.84,0 -59.45,-26.62 -59.45,-59.45 0,-32.84 26.62,-59.45 59.45,-59.45z"/>
 </g>
</svg>
