<?xml version="1.0" encoding="UTF-8"?>
<!DOCTYPE svg PUBLIC "-//W3C//DTD SVG 1.1//EN" "http://www.w3.org/Graphics/SVG/1.1/DTD/svg11.dtd">
<!-- Creator: CorelDRAW 2021 (64-Bit) -->
<svg xmlns="http://www.w3.org/2000/svg" xml:space="preserve" width="114.649mm" height="117.336mm" version="1.1" style="shape-rendering:geometricPrecision; text-rendering:geometricPrecision; image-rendering:optimizeQuality; fill-rule:evenodd; clip-rule:evenodd"
viewBox="0 0 8122.7 8313.04"
 xmlns:xlink="http://www.w3.org/1999/xlink"
 xmlns:xodm="http://www.corel.com/coreldraw/odm/2003">
 <defs>
  <style type="text/css">
   <![CDATA[
    .fil0 {fill:#978667}
   ]]>
  </style>
 </defs>
 <g id="Layer_x0020_1">
  <metadata id="CorelCorpID_0Corel-Layer"/>
  <g id="_2409817105984">
   <path class="fil0" d="M7443.85 6569.96c-129.16,0 -149.09,3.73 -262.4,-56.23 12.05,-144.79 149.94,-245.5 149.94,-880.91 174.87,-40.74 311.44,-25.82 446.1,116.19 261.56,275.85 32.81,820.95 -333.64,820.95zm-4704.47 -3561.15c0,75.58 31.56,92.83 69.03,137.13 154.82,183.06 267.69,523.03 512.93,574.15 120.36,25.09 248.59,48.96 359.86,71.22 493.9,98.83 967.95,189.61 1455.7,287.4 663,132.92 1347.56,224.02 1732,873.26 223.45,377.37 218.83,517.57 218.83,924.49 0,332.04 -217.8,753.51 -388.65,923.37 -324.09,322.21 -228.27,268.42 -441.31,552.06 -295.23,393.03 24.01,207.34 24.01,511.33 0,90.35 -61.95,161.72 -129.6,189.04 -73.49,29.68 -216.61,17.15 -320.23,17.14l-1986.75 0c-31.12,-133.61 38.17,-288.99 130.21,-357.1 134.87,-99.81 219.96,-92.79 450.81,-92.73 356.12,0.09 712.24,0.01 1068.35,0.01 80.53,-120.26 80.53,-104.66 0,-224.91 -686.6,0 -1237.03,-510.7 -1237.03,-1124.57 0,-289.5 23.28,-437.69 167.36,-676.07 67.79,-112.15 151.86,-206.15 251.32,-292.22 86.97,-75.26 81.95,-74.89 49.89,-212.52 -110.95,-25.85 -157.91,-55.12 -350.61,174.19 -331.88,394.95 -468.64,943.31 -268.23,1438.01 18.71,46.2 44.89,99.59 56.55,149.62 -71.29,-37.72 -204.16,-83.82 -283.46,-110.15 -105.37,-34.98 -204.35,-76.25 -300.28,-112.06 -55.37,-20.67 -248.96,-97.63 -290.22,-89.03 -117.34,24.48 -107.82,162.09 -130.27,281.64 -44.23,235.56 -79.61,447.3 -125.18,680.77 -20.93,107.21 -36.02,228.75 -62,350.34 -23.08,107.97 -76.26,216.77 -195.57,216.77l-1030.86 0c-145.31,0 -11,-354.95 209.16,-428.11 149.48,-49.67 521.82,56.05 521.82,-134.18 0,-148.68 -388.11,-1533.77 -454.41,-1813.48l-32.38 -736.08c2.73,-254.61 -28.5,-200.39 -464.27,-285.45 -426.51,-83.26 -786.95,-106.31 -1062.76,-474.16 -55.34,-73.82 -106.67,-141.2 -148.47,-226.39 -87.84,-179.02 -124.77,-375.98 -16.6,-555.12 50.66,-83.89 99.9,-101.86 184.23,-153.14 495.27,-301.16 1095.14,-915.96 1763.6,-566.98 77.34,40.37 160.66,91.08 242.41,5.21 132.59,-139.27 210.48,-280.03 490.02,-559.58 548.52,-548.54 1345.43,-1009.81 2115.17,-1183.57 87.53,-19.76 180.95,-48.77 269.86,-48.77 -283.6,535.95 -970.48,1185.79 -1462.83,1479.81 -372.6,222.5 -581.57,337.8 -1004.54,476.15 -88,28.79 -156.64,37.27 -156.64,143.25zm1874.29 -2698.98l-155.14 388.4c-163.76,383.13 -104.81,219.16 -619.34,505.23 -121.3,67.44 -234.81,139.8 -346.58,215.7l-324.94 237.36c-29.08,23.75 -40.36,38.07 -69.55,61.65l-637.46 637.06c-69.65,88.76 -94.43,153.35 -134.87,112.91 -74.04,-74.04 463.19,-773.54 576.46,-908.35 151.13,-179.86 181.17,-197.67 347.86,-364.37 141.65,-141.67 443.1,-394.55 621.62,-502.96 175.1,-106.34 541.76,-336 741.94,-382.64zm-2530.3 2080.46c-145.12,-12.07 -216.21,-39.21 -359.07,-22.57 -450.79,52.53 -515.73,130.95 -892.97,382.42 -200.62,133.73 -601.53,343.64 -724.06,531.72 -204.09,313.28 -87.72,694.71 105.12,979.4l169.31 205.54c394.98,395.09 891.35,376.71 1383.03,491.27 0,906.75 -49.7,457.01 153.72,1270.73l296.11 1147.1c-298.99,0 -521.86,71.07 -671.31,322.07 -84.32,141.62 -140.75,412.66 0.95,535.72 33.43,29.03 127.21,79.36 183.04,79.36l1030.86 0c381.31,0 436.96,-371.86 476.5,-591.85l160.76 -907.59 644.27 236.65c112.74,40.23 223.12,77.25 328.54,121.29 66.05,27.6 227.35,177.26 245.49,204.35 -333.96,0 -475.49,-25.56 -706.57,99.38 -225.35,121.84 -438.88,556.06 -211.1,762.06 45.85,41.46 118.25,75.71 205.44,75.71l2174.18 0c251.08,0 473.66,-252 435.05,-527.5 -18.09,-129.11 -50.68,-152.15 -97.68,-240.95 48.08,-71.82 89.57,-137.76 142.28,-213.83 214.52,-309.59 371.56,-377.63 494.97,-610.86 72.14,16.81 84.64,40.97 161.51,63.4 266.72,77.83 504.72,-6.97 677.44,-180.34 479.69,-481.5 162.19,-1232.55 -426.61,-1232.55 -83.2,0 -73.43,18.74 -168.69,18.74 -29.42,-353.55 -350.81,-784.92 -622.81,-1007.82 -370.37,-303.52 -707.02,-380.84 -1174.95,-474.43l-2068.88 -405.17c-109.03,-20.77 -119.85,-33.38 -223.31,-189.04 -57.75,-86.87 -109.03,-164.54 -164.69,-247.66 485.83,-113.19 1340.05,-683.97 1719.89,-1035.31 316.95,-293.16 682.5,-742.58 873.18,-1113.58 165.01,-321.06 -62.71,-290.26 -320.1,-245.11 -133.41,23.39 -534.13,111.68 -642.35,163.6l119.36 -330.47c34.89,-103.4 241.45,-587.84 -77.36,-491.57 -692.73,209.21 -1301.7,691.09 -1808.6,1192.12 -222.27,219.69 -761.73,935.8 -819.92,1185.57z"/>
   <path class="fil0" d="M1333.66 3252.46c0,370.22 451.18,277.07 444.28,20.94 -7.79,-289.52 -444.28,-295.1 -444.28,-20.94z"/>
  </g>
 </g>
</svg>
