<?xml version="1.0" encoding="UTF-8"?>
<!DOCTYPE svg PUBLIC "-//W3C//DTD SVG 1.1//EN" "http://www.w3.org/Graphics/SVG/1.1/DTD/svg11.dtd">
<!-- Creator: CorelDRAW 2021 (64-Bit) -->
<svg xmlns="http://www.w3.org/2000/svg" xml:space="preserve" width="115.538mm" height="113.304mm" version="1.1" style="shape-rendering:geometricPrecision; text-rendering:geometricPrecision; image-rendering:optimizeQuality; fill-rule:evenodd; clip-rule:evenodd"
viewBox="0 0 5790.65 5678.68"
 xmlns:xlink="http://www.w3.org/1999/xlink"
 xmlns:xodm="http://www.corel.com/coreldraw/odm/2003">
 <defs>
  <style type="text/css">
   <![CDATA[
    .fil1 {fill:#978667;fill-rule:nonzero}
    .fil4 {fill:#F3C38F;fill-rule:nonzero}
    .fil0 {fill:#F8AE6D;fill-rule:nonzero}
    .fil5 {fill:#FFBC80;fill-rule:nonzero}
    .fil3 {fill:#FFCC99;fill-rule:nonzero}
    .fil2 {fill:#FFCC99;fill-rule:nonzero}
   ]]>
  </style>
 </defs>
 <g id="Layer_x0020_1">
  <metadata id="CorelCorpID_0Corel-Layer"/>
  <path class="fil0" d="M1417.69 3360.45l1.58 -2.08c43.48,-55.39 123.5,-57.48 178.81,-8.95 214.54,184.06 441.45,338.58 674.05,463.83 60.18,33.39 83.83,107.74 53.94,170.08l-1.11 2.22c-29.91,62.29 -105.26,87.68 -169.38,52.68 -244.97,-130.53 -483.79,-291.1 -709.84,-482.12 -58.91,-50.68 -71.46,-140.29 -28.05,-195.66z"/>
  <path class="fil0" d="M4372.87 3360.45l-1.59 -2.08c-43.41,-55.39 -123.5,-57.48 -178.8,-8.95 -214.52,184.06 -441.36,338.58 -674.05,463.83 -60.09,33.39 -83.83,107.74 -53.85,170.08l1.04 2.22c29.95,62.29 105.33,87.68 169.36,52.68 245.06,-130.53 483.82,-291.1 709.93,-482.12 58.91,-50.68 71.37,-140.29 27.96,-195.66z"/>
  <path class="fil1" d="M3533.48 485.58c0,268.15 -285.18,485.56 -636.95,485.56 -351.78,0 -636.96,-217.41 -636.96,-485.56 0,-268.17 285.18,-485.58 636.96,-485.58 351.77,0 636.95,217.42 636.95,485.58z"/>
  <path class="fil1" d="M4025.52 1673.96c0,760.18 -505.48,1659.07 -1128.99,1659.07 -623.52,0 -1129,-898.89 -1129,-1659.07 0,-760.3 505.48,-1094.08 1129,-1094.08 623.52,0 1128.99,333.78 1128.99,1094.08z"/>
  <path class="fil2" d="M4809.7 5321.4l0 357.28 -3826.19 0 0 -357.28c0,-301.34 -101.5,-668.99 367.68,-963.94 15.97,-9.58 99.1,-45.56 148.65,-66.34 23.18,-10.37 39.17,-16.79 39.17,-16.79l119.9 -43.16 153.45 -55.94 601.07 -217.42 0 79.14c0,14.38 0.79,27.98 2.4,42.37 1.58,15.97 3.99,31.97 7.18,47.15 44.77,207.81 229.4,364.48 450.81,364.48l45.56 0c219.79,0 403.63,-155.06 449.2,-361.29 1.58,-8 3.19,-16 4.8,-24.79 1.59,-7.97 2.38,-15.97 3.2,-23.97l0.79 -1.59 0 -6.41c1.58,-11.99 2.4,-23.97 2.4,-35.96l0 -79.14 601.07 217.42 153.45 55.94 119.9 43.16c0,0 15.97,6.42 39.15,16.79 49.55,20.77 131.88,56.75 147.88,66.34 469.18,294.95 368.47,662.6 368.47,963.94z"/>
  <path class="fil3" d="M3379.77 3471.06l0 565.9c0,34.37 -4.01,67.13 -11.19,99.1 -45.56,207.02 -229.4,362.08 -449.2,362.08l-45.56 0c-221.41,0 -406.03,-156.65 -450.81,-365.28 -6.39,-31.17 -9.58,-63.14 -9.58,-95.9l0 -565.9c127.08,119.9 242.18,176.65 477.97,196.62l10.4 0c235.79,-19.96 350.89,-76.72 477.97,-196.62z"/>
  <path class="fil4" d="M2901.8 3861.12l-10.4 0c-235.79,-19.98 -350.89,-77.53 -477.97,-197.43l0 -192.63c127.08,119.9 242.18,176.65 477.97,196.62l10.4 0c235.79,-19.96 350.89,-76.72 477.97,-196.62l0 192.63c-127.08,119.9 -242.18,177.45 -477.97,197.43z"/>
  <path class="fil1" d="M4132.69 5518.05c0,55.94 -8.79,109.5 -25.56,160.64l-2421.05 0c-16.78,-51.14 -25.58,-104.7 -25.58,-160.64 0,-207.83 126.28,-389.27 314.11,-487.58 47.17,-25.58 98.33,-45.56 151.87,-59.14 56.75,-14.38 116.71,-22.38 178.24,-22.38 265.35,0 918.38,0 1182.94,0 62.35,0 122.31,8 179.04,22.38 54.35,13.57 104.72,33.55 151.87,59.14 188.64,98.31 314.12,279.74 314.12,487.58z"/>
  <path class="fil3" d="M4023.19 1964.08c-8.48,-1.43 -16.95,-1.59 -25.4,-0.64 -25.42,2.81 -50.69,15.68 -74.5,35.41l-0.09 -0.95c-2.63,-48.05 -6.64,-93.53 -11.42,-137.32 -0.89,-7.75 -2.18,-14.96 -3.04,-22.54 -3.38,-27.32 -6.57,-54.9 -10.97,-80.57l-1.27 0.73c-16.47,-95.27 -39.4,-180.39 -71.87,-253.69 -363.98,-446.97 -1456.93,-432.34 -1856.26,0 -32.44,73.3 -55.4,158.42 -71.85,253.69l-1.29 -0.73c-4.4,25.58 -7.5,53.09 -10.86,80.34 -0.97,7.66 -2.24,15.03 -3.13,22.84 -4.8,43.5 -8.72,88.66 -11.35,136.28l-0.16 1.92c-23.81,-19.74 -49.08,-32.6 -74.5,-35.41 -8.48,-0.95 -16.95,-0.79 -25.42,0.64 -83.83,13.59 -136.03,132.13 -129.01,277.36 1.04,20.78 3.28,42.03 6.73,63.69 2.88,17.51 6.39,34.53 10.63,51 29.57,115.34 91.6,202.55 158.33,227.72 8.97,3.51 18.15,5.91 27.25,6.96 9.2,1.04 18.3,0.89 27.25,-0.72l17.92 -5.44c64.98,270.79 149.7,483.5 242.81,584.21 119.25,129.08 202.53,227.55 281.36,301.88 127.08,119.9 242.43,176.97 478.2,196.93l5.21 0 5.19 0 0 0c235.79,-19.96 351.13,-77.03 478.22,-196.93 78.8,-74.34 162.08,-172.81 281.35,-301.88 93.1,-100.71 177.83,-313.41 242.81,-584.21l17.9 5.44c8.95,1.61 18.05,1.76 27.25,0.72 9.11,-1.04 18.31,-3.44 27.25,-6.96 76.27,-28.77 146.34,-138.59 168.98,-278.72 3.44,-21.66 5.66,-42.91 6.71,-63.69 7.05,-145.23 -45.16,-263.77 -129.01,-277.36z"/>
  <path class="fil0" d="M4074.75 3826.66l-2.16 -0.95c-58.68,-25.49 -126.86,1.36 -152.35,59.95l-318.28 731.03c-25.49,58.59 1.36,126.83 59.95,152.34l2.16 0.89c58.59,25.56 126.77,-1.29 152.25,-59.88l318.29 -731.1c25.49,-58.59 -1.27,-126.77 -59.86,-152.28z"/>
  <path class="fil0" d="M4281.84 3917.54l-2.15 -0.79c-60.27,-21.5 -126.45,9.9 -147.95,70.1l-306.68 860.03c-21.5,60.18 9.9,126.45 70.1,147.86l2.24 0.79c60.18,21.5 126.36,-9.9 147.86,-70.08l306.68 -860.03c21.5,-60.2 -9.9,-126.45 -70.1,-147.89z"/>
  <path class="fil0" d="M4481.35 4007.46l-2.34 -0.57c-62.42,-13.51 -124.11,26.05 -137.71,88.57l-169.45 779.06c-13.59,62.51 26.06,124.13 88.48,137.73l2.34 0.48c62.48,13.6 124.11,-26.05 137.71,-88.48l169.45 -779.14c13.59,-62.42 -26.06,-124.05 -88.48,-137.64z"/>
  <path class="fil0" d="M4679.49 4095.87l-2.08 -0.25c-56.26,-7.91 -108.21,31.26 -116.05,87.52l-88.57 632.08c-7.84,56.19 31.33,108.14 87.52,116.05l2.08 0.32c56.19,7.84 108.14,-31.33 116.05,-87.59l88.57 -632.08c7.84,-56.19 -31.33,-108.14 -87.52,-116.05z"/>
  <path class="fil5" d="M4757.42 3386.89l-209.03 -90.95c-172.48,-75.13 -373.09,3.83 -448.15,176.25l-111.17 255.37 833.5 362.87 111.18 -255.37c75.04,-172.42 -3.85,-373.11 -176.32,-448.17z"/>
  <polygon class="fil5" points="5790.65,2004.36 4962.11,1634.7 4246.83,3473.71 4832.78,3728.83 "/>
  <path class="fil5" d="M4839.42 4051.73l-82.66 189.84c-22.7,52.11 -83.19,75.93 -135.31,53.22l-1.83 -0.79c-52.11,-22.7 -75.95,-83.29 -53.24,-135.31l-15.03 34.53c-25.49,58.57 -93.75,85.44 -152.34,59.93l-2.16 -0.95c-58.59,-25.49 -85.37,-93.67 -59.88,-152.26l-13.89 31.97c-25.58,58.59 -93.78,85.35 -152.35,59.86l-2.18 -0.88c-58.56,-25.58 -85.44,-93.76 -59.86,-152.35 -25.58,58.59 -93.75,85.46 -152.35,59.95l-2.15 -0.95c-58.59,-25.51 -85.44,-93.69 -59.86,-152.35l111.56 -256.34 833.5 362.87z"/>
  <path class="fil0" d="M1715.89 3826.66l2.16 -0.95c58.59,-25.49 126.77,1.36 152.28,59.95l318.26 731.03c25.51,58.59 -1.27,126.83 -59.95,152.34l-2.06 0.89c-58.68,25.56 -126.86,-1.29 -152.34,-59.88l-318.29 -731.1c-25.49,-58.59 1.36,-126.77 59.95,-152.28z"/>
  <path class="fil0" d="M1508.72 3917.54l2.24 -0.79c60.18,-21.5 126.36,9.9 147.86,70.1l306.68 860.03c21.5,60.18 -9.9,126.45 -70.1,147.86l-2.15 0.79c-60.27,21.5 -126.45,-9.9 -147.95,-70.08l-306.68 -860.03c-21.5,-60.2 9.92,-126.45 70.1,-147.89z"/>
  <path class="fil0" d="M1309.29 4007.46l2.25 -0.57c62.51,-13.51 124.13,26.05 137.71,88.57l169.45 779.06c13.59,62.51 -26.06,124.13 -88.48,137.73l-2.31 0.48c-62.44,13.6 -124.05,-26.05 -137.64,-88.48l-169.45 -779.14c-13.59,-62.42 25.97,-124.05 88.48,-137.64z"/>
  <path class="fil0" d="M1111.16 4095.87l2.08 -0.25c56.19,-7.91 108.14,31.26 116.05,87.52l88.48 632.08c7.91,56.19 -31.33,108.14 -87.52,116.05l-2.08 0.32c-56.19,7.84 -108.14,-31.33 -116.05,-87.59l-88.48 -632.08c-7.9,-56.19 31.24,-108.14 87.52,-116.05z"/>
  <path class="fil5" d="M1033.15 3386.89l209.01 -90.95c172.48,-75.13 373.11,3.83 448.15,176.25l111.17 255.37 -833.48 362.87 -111.2 -255.37c-75.04,-172.42 3.92,-373.11 176.34,-448.17z"/>
  <polygon class="fil5" points="-0,2004.36 828.45,1634.7 1543.82,3473.71 957.86,3728.83 "/>
  <path class="fil5" d="M951.13 4051.73l82.66 189.84c22.7,52.11 83.28,75.93 135.31,53.22l1.92 -0.79c52.04,-22.7 75.86,-83.29 53.24,-135.31l15.03 34.53c25.49,58.57 93.66,85.44 152.25,59.93l2.18 -0.95c58.57,-25.49 85.44,-93.67 59.93,-152.26l13.91 31.97c25.51,58.59 93.69,85.35 152.28,59.86l2.15 -0.88c58.59,-25.58 85.44,-93.76 59.95,-152.35 25.49,58.59 93.66,85.46 152.26,59.95l2.15 -0.95c58.59,-25.51 85.46,-93.69 59.95,-152.35l-111.66 -256.34 -833.5 362.87z"/>
 </g>
</svg>
