<?xml version="1.0" encoding="UTF-8"?>
<!DOCTYPE svg PUBLIC "-//W3C//DTD SVG 1.1//EN" "http://www.w3.org/Graphics/SVG/1.1/DTD/svg11.dtd">
<!-- Creator: CorelDRAW 2021 (64-Bit) -->
<svg xmlns="http://www.w3.org/2000/svg" xml:space="preserve" width="129.269mm" height="153.307mm" version="1.1" style="shape-rendering:geometricPrecision; text-rendering:geometricPrecision; image-rendering:optimizeQuality; fill-rule:evenodd; clip-rule:evenodd"
viewBox="0 0 5034.58 5970.8"
 xmlns:xlink="http://www.w3.org/1999/xlink"
 xmlns:xodm="http://www.corel.com/coreldraw/odm/2003">
 <defs>
  <style type="text/css">
   <![CDATA[
    .str1 {stroke:#978667;stroke-width:65.95;stroke-linecap:round;stroke-linejoin:round;stroke-miterlimit:22.9256}
    .str0 {stroke:#978667;stroke-width:115.41;stroke-linecap:round;stroke-linejoin:round;stroke-miterlimit:22.9256}
    .fil0 {fill:#978667}
    .fil1 {fill:#978667;fill-rule:nonzero}
   ]]>
  </style>
 </defs>
 <g id="Layer_x0020_1">
  <metadata id="CorelCorpID_0Corel-Layer"/>
  <path class="fil0" d="M3627.54 1538.96c0,155.23 340.77,123.27 340.77,505.66 0,100.31 -18.18,185.12 -35.3,272.49 -12.22,62.35 -9.72,63.32 -63.3,90.6 -34.45,17.55 -65.12,45.51 -99.27,54.63 -14.79,-177.76 -259.12,-568.58 -414.74,-717.49 -92.93,-88.93 -306.43,-245.21 -420.69,-271.84 15.36,-57.54 142.14,-130.45 252.96,-274.68 59.9,-77.96 161.85,-232.53 164.76,-362.88 225.88,52.62 423.48,413.74 428.71,648.56 -80.96,-42.84 -153.89,-21.22 -153.89,54.96zm-1133.4 -1538.96l63.19 0c116.5,3.94 233.52,30.11 347.74,84.9 202.41,97.08 353.41,264.68 421.7,479.69 49.73,156.57 43.25,47.87 246.01,193.69 175.05,125.89 293.03,307.33 351.71,549.68 23.58,97.41 24.54,217.3 44.64,296.13 21.39,83.88 164.06,122.86 164.06,385.56 0,233.18 -20.14,208.47 -32.98,362.75l120.92 0 0 -890.39c0,-157.54 175.88,-157.13 175.88,-32.98l0 1000.32c0,113.83 -128.39,88.36 -241.87,87.91 -138.81,-0.56 -170.06,14.69 -257.37,72.4l-287.85 206.81c-47.34,35.89 -95.83,123.97 -8.06,153.91 56.86,19.4 180.61,-61.65 233,-82.87 171.07,-69.3 425.01,-266.08 466.83,30.92 32.24,228.98 44.11,367.32 -110.97,555.78 -47.37,57.57 -132.32,163.97 -187.78,207.95 -45.26,35.89 -69,66.01 -109.91,98.95 -58.9,47.42 -320.44,225.06 -320.44,273.16 0,43.11 54.38,54.96 98.93,54.96 259.61,0 596.58,-178.73 794.72,-326.52 102.97,-76.81 196.3,-164.54 264.2,-274.43 63.47,-102.73 124.33,-242.11 128.65,-399 14.52,-528.23 -0.01,-1064.95 -0.37,-1594.29 -0.07,-95.33 -16.99,-178.07 62.14,-202.48 33.86,-10.44 71.38,5.42 89.42,28.86 18.56,24.12 24.32,67.14 24.32,107.66l0 1505.98c0,237.38 -28.26,410.48 -113.51,568.02 -45.64,84.34 -81.43,131.04 -141.89,198.88l-126.57 126.26c-17.77,16.52 -19.73,20.38 -40.35,36.6 -155.19,122.07 -344.7,236.52 -540.83,305.59 -181.7,63.99 -537.54,194.6 -651.14,-49.84 -66.71,-143.55 50,-256.64 154.61,-325.76 105.73,-69.86 190.75,-160.75 286.71,-240.93l131.37 -132.45c210.37,-205.56 140.2,-255.5 140.2,-497.36 -29.14,6.79 -93.92,36.27 -124.7,51.18l-234.35 106.42c-41.64,19.57 -67.81,40.27 -124.61,40.27 -271.74,0 -357.23,-274.99 -167.59,-442.4l145.6 -107.23c-23.66,-101.53 -58.3,-199.7 -104.47,-291.27 -16.06,-31.86 -29.19,-52.51 -45.74,-86.17 -54.53,-110.92 -138.25,-224.36 -220.77,-306.87 -67.45,-67.44 -380.12,-305.13 -486.48,-300.32 -24.55,1.11 -123.96,75.47 -154.35,93.73 -110.47,66.37 -216.29,131.07 -336.61,191.04 -112.5,56.07 -237.52,106.38 -342.41,174.24 -56.8,36.75 -102.88,68.31 -154.51,109.31 -53.7,42.64 -87.36,79 -136.23,127.59 -89.12,88.6 -148.42,201.97 -205.95,310.7 423.84,283.81 127.61,527.64 -10.99,527.64 -113.89,0 -192.66,-50.23 -289.43,-95.31 -73.77,-34.37 -159.67,-84.25 -238.21,-102.55 0,250.51 -72.74,287.31 145.79,502.77 30.03,29.61 34.52,42.3 60.24,71.67l283.99 243.65c115.86,90.69 316.41,202.52 219.2,385.77 -126.24,237.95 -481.23,105.32 -663.77,36.82 -337.02,-126.47 -668.36,-347.33 -837.1,-668.88 -81.85,-155.97 -109.74,-323.89 -109.74,-560.81l0 -1505.98c0,-74.55 35.15,-169.85 121.44,-133.51 73.93,31.13 54.47,112.47 54.44,210.46 -0.14,468.48 -20.68,1180.96 -0.09,1594 11.36,227.8 111.1,402.62 255.47,546.99 175.36,175.35 650.31,442.26 876.85,442.26 366.92,0 -31.42,-214.22 -172.65,-333.01 -92.29,-77.62 -130.06,-129.15 -203.64,-203.08 -94.52,-94.98 -217.31,-220.54 -217.31,-376.29 0,-100.5 -2.26,-325.78 57.46,-393.23 19.13,-21.61 58.91,-46.47 96.43,-46.47 105.72,0 365.63,149.14 483.54,198.32 40.92,17.07 132.04,31.45 132.04,-44.42 0,-95.56 -285.29,-261.43 -353.79,-305.76 -90.07,-58.29 -118.07,-68.35 -261.78,-68 -110.62,0.27 -230.86,24 -230.86,-87.93l0 -1000.32c0,-124.15 175.88,-124.56 175.88,32.98l0 890.39 76.95 0c0,-107.67 -10.99,-172.09 -10.99,-274.81 0,-401.02 71.75,-751.53 245.45,-1073.66 36.36,-67.44 109.6,-234.45 194.25,-234.45 31.1,0 76.95,34.89 76.95,65.95 0,54.46 -33.26,101.25 -61.2,147.66 -75.54,125.46 -125.77,242.86 -173.8,386.83 -61.27,183.66 -105.78,393.87 -105.78,630.72l10.99 362.75c50.31,24.14 74.72,30.24 125.73,61.14 39.13,23.71 68.2,55.79 116.11,59.78 16.56,-71.08 128.92,-220.51 174.15,-276.54 136.05,-168.54 319.84,-289.54 514.71,-386.68 362.66,-180.76 1190.86,-590.96 1190.86,-1062.61 0,-75.35 -30.48,-189.96 -62.18,-234.62 -19.63,-27.64 -57.31,-41.78 -91.43,-51.48 -156.74,-44.55 -345.81,-1.69 -470.94,79.26 -40.56,26.24 -215.51,173.85 -243.86,173.85 -56.66,0 -98.94,-26.8 -98.94,-87.94 0,-100.65 409.48,-362.75 659.55,-362.75 -24.66,-33.67 -119.52,-66.69 -171.81,-81.02 -203.73,-55.83 -420.37,-7.4 -601.5,77.2 -162.85,76.05 -312.26,181.64 -438.64,308.86 -29.98,30.18 -90.69,101.69 -140.15,101.69 -54.71,0 -104.52,-69.6 -72.64,-126.55 45.55,-81.36 277.09,-259.2 358.41,-313.19 202.14,-134.22 438.87,-233.65 680.41,-241.79z"/>
  <path class="fil1 str0" d="M3629.65 3224.44c5,32.33 7.58,65.21 7.58,98.54 0,233.87 -126.44,445.58 -330.85,598.76 -204.15,152.99 -486.13,247.62 -797.52,247.62 -311.39,0 -593.38,-94.63 -797.53,-247.62 -204.41,-153.18 -330.85,-364.88 -330.85,-598.76 0,-33.33 2.58,-66.21 7.58,-98.54l9.13 0c-5.06,32.32 -7.68,65.21 -7.68,98.54 0,231.26 125.16,440.69 327.49,592.32 202.6,151.83 482.57,245.73 791.86,245.73 309.29,0 589.26,-93.91 791.85,-245.73 202.34,-151.63 327.49,-361.05 327.49,-592.32 0,-33.33 -2.61,-66.22 -7.68,-98.54l9.13 0z"/>
  <path class="fil1 str1" d="M3030.09 4122.2l0 489.88 285.69 0c230.14,0 439.31,94.11 590.92,245.71 151.61,151.61 245.71,360.79 245.71,590.92l0 431.4c0,31.87 -25.84,57.71 -57.71,57.71l-3171.72 0c-31.87,0 -57.71,-25.84 -57.71,-57.71l0 -431.4c0,-230.14 94.11,-439.31 245.72,-590.92 151.6,-151.6 360.78,-245.71 590.92,-245.71l285.69 0 0 -489.88 115.41 0 0 547.59c0,31.87 -25.84,57.71 -57.71,57.71l-343.4 0c-198.28,0 -378.58,81.16 -509.32,211.9 -130.75,130.75 -211.9,311.04 -211.9,509.32l0 373.69 3056.31 0 0 -373.69c0,-198.27 -81.16,-378.57 -211.9,-509.32 -130.75,-130.74 -311.05,-211.9 -509.32,-211.9l-343.4 0c-31.87,0 -57.71,-25.84 -57.71,-57.71l0 -547.59 115.41 0z"/>
 </g>
</svg>
